<?xml version="1.0" encoding="utf-8"?>
<!-- Generator: Adobe Illustrator 24.0.0, SVG Export Plug-In . SVG Version: 6.00 Build 0)  -->
<svg version="1.1" xmlns="http://www.w3.org/2000/svg" xmlns:xlink="http://www.w3.org/1999/xlink" x="0px" y="0px"
	 viewBox="0 0 64 64" enable-background="new 0 0 64 64" xml:space="preserve">
<g id="Captions">
</g>
<g id="Icons">
	<g>
		<g>
			<path fill="#DC9600" d="M32,59C19.318,59,9,48.682,9,36s10.318-23,23-23s23,10.318,23,23S44.682,59,32,59z M32,15
				c-11.58,0-21,9.42-21,21s9.42,21,21,21s21-9.42,21-21S43.58,15,32,15z"/>
		</g>
		<g>
			<g>
				<circle fill="#C80A50" cx="16" cy="48" r="12"/>
			</g>
			<g>
				<path fill="#FAB400" d="M24,55c0-1.657-1.343-3-3-3H11c-1.657,0-3,1.343-3,3v1.943c2.123,1.9,4.926,3.057,8,3.057
					s5.877-1.156,8-3.057V55z"/>
				<g>
					<path fill="#00A0C8" d="M12,52c0,2.209,1.791,4,4,4s4-1.791,4-4H12z"/>
				</g>
				<g>
					<path fill="#D2AA82" d="M16,54L16,54c-1.105,0-2-0.895-2-2v-3h4v3C18,53.105,17.105,54,16,54z"/>
				</g>
				<g>
					<path fill="#F0C8A0" d="M17,50h-2c-1.657,0-3-1.343-3-3v-3c0-1.105,0.895-2,2-2h4c1.105,0,2,0.895,2,2v3
						C20,48.657,18.657,50,17,50z"/>
				</g>
				<g>
					<path fill="#0A5078" d="M18,42h-4c-1.105,0-2,0.895-2,2v0v-2c0-1.105,0.895-2,2-2h4c1.105,0,2,0.895,2,2v2v0
						C20,42.895,19.105,42,18,42z"/>
				</g>
			</g>
		</g>
		<g>
			<g>
				<circle fill="#0A5078" cx="48" cy="48" r="12"/>
			</g>
			<g>
				<path fill="#00A0C8" d="M56,55c0-1.657-1.343-3-3-3H43c-1.657,0-3,1.343-3,3v1.943c2.123,1.9,4.926,3.057,8,3.057
					s5.877-1.156,8-3.057V55z"/>
				<g>
					<path fill="#0A5078" d="M44,52c0,2.209,1.791,4,4,4s4-1.791,4-4H44z"/>
				</g>
				<g>
					<path fill="#D2AA82" d="M48,54L48,54c-1.105,0-2-0.895-2-2v-3h4v3C50,53.105,49.105,54,48,54z"/>
				</g>
				<g>
					<path fill="#F0C8A0" d="M49,50h-2c-1.657,0-3-1.343-3-3v-3c0-1.105,0.895-2,2-2h4c1.105,0,2,0.895,2,2v3
						C52,48.657,50.657,50,49,50z"/>
				</g>
				<g>
					<path fill="#DC9600" d="M50,42h-4c-1.105,0-2,0.895-2,2v0v-2c0-1.105,0.895-2,2-2h4c1.105,0,2,0.895,2,2v2v0
						C52,42.895,51.105,42,50,42z"/>
				</g>
			</g>
		</g>
		<g>
			<g>
				<circle fill="#00A0C8" cx="32" cy="16" r="12"/>
			</g>
			<g>
				<g>
					<path fill="#C80A50" d="M33,6h-2c-2.761,0-5,2.239-5,5v10c0,0.552,0.448,1,1,1h10c0.552,0,1-0.448,1-1V11
						C38,8.239,35.761,6,33,6z"/>
				</g>
				<path fill="#C80A50" d="M36,20h-8c-2.209,0-4,1.791-4,4v0.943c2.123,1.9,4.926,3.057,8,3.057s5.877-1.156,8-3.057V24
					C40,21.791,38.209,20,36,20z"/>
				<g>
					<path fill="#00A0C8" d="M28,20c0,2.209,1.791,4,4,4s4-1.791,4-4H28z"/>
				</g>
				<g>
					<path fill="#D2AA82" d="M32,22L32,22c-1.105,0-2-0.895-2-2v-3h4v3C34,21.105,33.105,22,32,22z"/>
				</g>
				<g>
					<path fill="#F0C8A0" d="M33,18h-2c-1.657,0-3-1.343-3-3v-3c0-1.105,0.895-2,2-2h1v0c0,1.105,0.895,2,2,2h3v3
						C36,16.657,34.657,18,33,18z"/>
				</g>
			</g>
		</g>
		<g>
			<g>
				<path fill="#00325A" d="M36,48c0,0.105,0.001,0.21,0.004,0.315C40.663,46.666,44,42.223,44,37c0-0.105-0.001-0.21-0.004-0.315
					C39.337,38.334,36,42.777,36,48z"/>
			</g>
			<g>
				<path fill="#A00028" d="M20.004,36.685C20.001,36.79,20,36.895,20,37c0,5.223,3.337,9.666,7.996,11.315
					C27.999,48.21,28,48.105,28,48C28,42.777,24.663,38.334,20.004,36.685z"/>
			</g>
		</g>
		<g>
			<circle fill="#FAB400" cx="32" cy="36" r="12"/>
		</g>
		<path fill="#BE7800" d="M33,35h-2c-1.103,0-2-0.897-2-2s0.897-2,2-2h2c1.103,0,2,0.897,2,2c0,0.552,0.448,1,1,1s1-0.448,1-1
			c0-2.206-1.794-4-4-4v-1c0-0.552-0.448-1-1-1s-1,0.448-1,1v1c-2.206,0-4,1.794-4,4s1.794,4,4,4h2c1.103,0,2,0.897,2,2
			s-0.897,2-2,2h-2c-1.103,0-2-0.897-2-2c0-0.552-0.448-1-1-1s-1,0.448-1,1c0,2.206,1.794,4,4,4v1c0,0.552,0.448,1,1,1s1-0.448,1-1
			v-1c2.206,0,4-1.794,4-4S35.206,35,33,35z"/>
	</g>
</g>
</svg>
