<?xml version="1.0" encoding="iso-8859-1"?>
<!-- Generator: Adobe Illustrator 19.0.0, SVG Export Plug-In . SVG Version: 6.00 Build 0)  -->
<svg xmlns="http://www.w3.org/2000/svg" xmlns:xlink="http://www.w3.org/1999/xlink" version="1.1" id="Layer_1" x="0px" y="0px" viewBox="0 0 511.999 511.999" style="enable-background:new 0 0 511.999 511.999;" xml:space="preserve">
<path style="fill:#C6C6C6;" d="M434.229,227.969c-4.42,0-351.897,0-356.459,0c-8.468,0-15.332,6.865-15.332,15.333  c0,12.616,0,233.694,0,245.306c0,8.468,6.864,15.333,15.332,15.333c4.421,0,351.896,0,356.459,0c8.47,0,15.332-6.865,15.332-15.333  c0-12.615,0-233.694,0-245.306C449.561,234.834,442.699,227.969,434.229,227.969z"/>
<path style="fill:#B7B4B0;" d="M87.4,488.608c0-11.622,0-232.703,0-245.306c0-8.468,6.865-15.333,15.333-15.333H77.77  c-8.468,0-15.332,6.865-15.332,15.333c0,12.616,0,233.694,0,245.306c0,8.468,6.864,15.333,15.332,15.333h24.963  C94.266,503.941,87.4,497.075,87.4,488.608z"/>
<path style="fill:#DDDDDD;" d="M440.689,502.497c2.096-0.968,3.991-2.434,5.478-4.284c0.002,0,0.002,0,0.004,0L292.152,369.336  c-1.411-1.182-2.892-2.272-4.418-3.287l-10.784,9.024c-11.57,9.683-30.33,9.683-41.9,0l-10.786-9.024  c-1.527,1.015-3.005,2.105-4.418,3.287l-153.841,129.1c2.813,3.362,7.037,5.506,11.764,5.506  C461.993,503.941,435.818,504.759,440.689,502.497z"/>
<path style="fill:#CACCCB;" d="M87.4,488.608v-8.127l-21.394,17.954c1.722,2.062,4.154,3.784,6.918,4.71  c3.478,1.163,4.796,0.796,29.809,0.796C94.266,503.941,87.4,497.075,87.4,488.608z"/>
<g>
	<path style="fill:#98A09B;" d="M123.962,227.97H77.77c-4.766,0-9.028,2.176-11.838,5.591l58.029,48.557V227.97H123.962z"/>
	<path style="fill:#98A09B;" d="M383.524,285.893l62.543-52.333c-2.81-3.415-7.07-5.591-11.838-5.591h-50.706L383.524,285.893   L383.524,285.893z"/>
</g>
<path style="fill:#818984;" d="M65.933,233.56l21.468,17.964v-8.223c0-8.461,6.856-15.321,15.313-15.332  C77.588,227.97,71.862,226.347,65.933,233.56z"/>
<path style="fill:#FCD28D;" d="M297.393,63.785c-7.255,0-165.267,0-173.431,0c0,8.35,0,209.168,0,218.332l111.088,92.955  c11.57,9.683,30.33,9.683,41.9,0l106.573-89.18V149.919L297.393,63.785z"/>
<path style="fill:#F7C781;" d="M150.883,63.785h-26.922c0,8.35,0,209.168,0,218.332l26.922,22.527  C150.883,293.188,150.883,70.653,150.883,63.785z"/>
<path style="fill:#45CE73;" d="M195.176,72.548c0,35.813-29.032,64.842-64.841,64.842c-35.815,0-64.844-29.03-64.844-64.842  c0-35.815,29.03-64.843,64.844-64.843C166.144,7.705,195.176,36.733,195.176,72.548z"/>
<path style="fill:#34B75C;" d="M107.265,11.943c-24.421,9.3-41.776,32.918-41.776,60.605c0,35.813,29.03,64.842,64.844,64.842  c23.904,0,44.773-12.945,56.016-32.198C129.546,126.829,76.434,64.736,107.265,11.943z"/>
<path style="fill:#F7C781;" d="M274.927,135.361c0,8.039,6.516,14.554,14.554,14.554c10.658,0,84.887,0,94.041,0l-86.128-86.13  h-22.467C274.927,72.229,274.927,127.457,274.927,135.361z"/>
<path style="fill:#EAAD54;" d="M311.948,149.917h71.576l-86.13-86.13c0,8.443,0,63.671,0,71.576  C297.393,143.4,303.909,149.917,311.948,149.917z"/>
<path d="M457.226,243.363c0-10.922-7.771-20.416-18.637-22.447c-1.48-0.276-2.909-0.395-4.204-0.395h-43.253  c0-75.282,0.78-72.953-2.195-75.927c-91.1-91.1-87.179-88.401-91.507-88.401h-96.694c-3.297-14.245-10.848-27.338-21.835-37.323  c-3.061-2.785-7.804-2.559-10.588,0.506c-2.784,3.063-2.558,7.804,0.506,10.588c40.205,36.541,11.289,104.414-43.598,99.666  c-29.317-2.544-52.403-27.207-52.403-57.172c0-39.165,38.723-67.142,76.074-54.303c3.91,1.342,8.18-0.736,9.524-4.652  c1.346-3.915-0.737-8.179-4.652-9.524c-47.097-16.187-95.937,19.075-95.937,68.48c0,35.174,25.22,64.555,58.524,71.046v77.017  c-38.27,0-40.755-0.785-46.694,1.432c-8.957,3.324-14.885,11.894-14.885,21.408v245.521c0,12.647,10.294,22.841,22.841,22.841  c386.751,0,362.263,2.049,371.075-5.044c5.378-4.335,8.537-10.848,8.537-17.798L457.226,243.363L457.226,243.363z M432.282,235.513  l-41.151,34.433v-34.433H432.282z M304.926,81.785l60.614,60.615h-53.541c-3.899,0-7.072-3.173-7.072-7.072V81.785H304.926z   M202.606,71.185h87.329v64.144c0,12.166,9.897,22.063,22.063,22.063h64.144c0,6.312,0,118.958,0,125.099  c-47.991,40.158-103.999,87.492-107.526,89.415c-6.262,3.416-14.326,4.023-21.259,1.718c-5.962-1.982,2.462,4.223-116.013-94.913  c0-2.065,0-131.362,0-133.866C171.946,144.231,203.324,110.419,202.606,71.185z M69.764,485.642v-238.91  c5.998,5.019,136.228,113.992,142.553,119.282L69.764,485.642z M116.351,235.513v30.655l-36.634-30.655L116.351,235.513  L116.351,235.513z M79.866,496.735l144.127-120.948c6.558,5.487,11.599,10.616,22.266,13.143  c22.714,5.384,35.981-8.316,41.75-13.143l43.54,36.433c3.175,2.655,7.901,2.237,10.559-0.937c2.656-3.175,2.237-7.902-0.937-10.559  l-41.481-34.71c16.086-13.461,87.832-73.498,142.548-119.28v238.559l-81.389-68.102c-3.173-2.656-7.901-2.238-10.558,0.938  c-2.656,3.174-2.236,7.901,0.937,10.558l81.325,68.049H79.866z"/>
<path d="M214.466,194.324h116.575c4.141,0,7.495-3.355,7.495-7.496c0-4.141-3.355-7.495-7.495-7.495H214.466  c-4.141,0-7.495,3.355-7.495,7.495C206.971,190.969,210.326,194.324,214.466,194.324z"/>
<path d="M214.466,241.171h116.575c4.141,0,7.495-3.355,7.495-7.496c0-4.141-3.355-7.495-7.495-7.495H214.466  c-4.141,0-7.495,3.355-7.495,7.495C206.971,237.816,210.326,241.171,214.466,241.171z"/>
<path d="M214.466,288.018h116.575c4.141,0,7.495-3.355,7.495-7.495c0-4.141-3.355-7.496-7.495-7.496H214.466  c-4.141,0-7.495,3.355-7.495,7.496C206.971,284.663,210.326,288.018,214.466,288.018z"/>
<path d="M184.115,179.333h-7.673c-4.141,0-7.496,3.355-7.496,7.495c0,4.141,3.355,7.496,7.496,7.496h7.673  c4.141,0,7.496-3.355,7.496-7.496C191.611,182.688,188.255,179.333,184.115,179.333z"/>
<path d="M184.115,226.18h-7.673c-4.141,0-7.496,3.355-7.496,7.495c0,4.141,3.355,7.496,7.496,7.496h7.673  c4.141,0,7.496-3.355,7.496-7.496C191.611,229.535,188.255,226.18,184.115,226.18z"/>
<path d="M184.115,273.027h-7.673c-4.141,0-7.496,3.355-7.496,7.496c0,4.141,3.355,7.495,7.496,7.495h7.673  c4.141,0,7.496-3.355,7.496-7.495C191.611,276.382,188.255,273.027,184.115,273.027z"/>
<path d="M151.583,53.155l-27.919,27.433l-12.019-11.081c-3.044-2.808-7.784-2.612-10.592,0.43c-2.806,3.044-2.613,7.785,0.43,10.592  c18.75,17.287,18.557,17.903,22.345,17.903c1.9,0,3.799-0.72,5.255-2.149l33.007-32.434c2.952-2.901,2.994-7.646,0.093-10.6  C159.281,50.295,154.535,50.254,151.583,53.155z"/>
<g>
</g>
<g>
</g>
<g>
</g>
<g>
</g>
<g>
</g>
<g>
</g>
<g>
</g>
<g>
</g>
<g>
</g>
<g>
</g>
<g>
</g>
<g>
</g>
<g>
</g>
<g>
</g>
<g>
</g>
</svg>
