<svg xmlns="http://www.w3.org/2000/svg" xml:space="preserve" width="655.359" height="655.359" style="shape-rendering:geometricPrecision;text-rendering:geometricPrecision;image-rendering:optimizeQuality;fill-rule:evenodd;clip-rule:evenodd" viewBox="0 0 6.827 6.827"><defs><style>.fil35{fill:#505b6e}.fil1{fill:#88a3d3}.fil7{fill:#8ba5d4}.fil16{fill:#90a9d6}.fil17{fill:#9db2db}.fil3{fill:#a6b9dd}.fil2{fill:#adc0e0}.fil14{fill:#b4c4e3}.fil10{fill:#bbcae5}.fil19{fill:#bdcbe5}.fil5{fill:#c0cee6}.fil18{fill:#c1cfe7}.fil20{fill:#c8d3ea}.fil22{fill:#c9d5ea}.fil23{fill:#cad6eb}.fil25{fill:#d3dcee}.fil34{fill:#505b6e;fill-rule:nonzero}</style></defs><g id="Layer_x0020_1"><g id="_426237192"><path id="_426241008" d="M3.413.103a3.31 3.31 0 1 1 0 6.62 3.31 3.31 0 0 1 0-6.62z" style="fill:#9fb5dd"/><path id="_426240768" class="fil1" d="M.848 1.35.84 1.332c.008-.01.015-.02.023-.028l-.014.044z"/><path id="_426240960" class="fil2" d="m.103 3.424.074.129-.056.202a3.349 3.349 0 0 1-.018-.331z"/><path id="_426241176" class="fil3" d="m.177 3.553-.074-.13v-.01c0-.052.002-.104.004-.155l.07.295z"/><path id="_426240624" d="m1.188 5.863.776-.144-.09.625a3.318 3.318 0 0 1-.686-.48z" style="fill:#c5d2e9"/><path id="_426240696" class="fil5" d="m.878 5.54.57-2.232.516 2.411-.776.144c-.11-.1-.214-.208-.31-.322z"/><path id="_426241224" d="M1.447 3.308.2 2.618c.019-.078.041-.156.066-.232l1.254-.278-.073 1.2z" style="fill:#acbfe0"/><path id="_426240264" class="fil7" d="m.84 1.333.008.016-.025.004.016-.02z"/><path id="_426240144" d="m.823 1.353.025-.004-.185.222c.05-.075.104-.148.16-.218z" style="fill:#97afd9"/><path id="_426239952" d="m.663 1.571.185-.222.672.76-1.254.277c.095-.291.23-.565.397-.815z" style="fill:#a0b5dc"/><path id="_426239760" class="fil2" d="m.177 3.553-.07-.295c.01-.22.042-.433.093-.64l1.247.69-1.27.245z"/><path id="_426239856" class="fil10" d="m.207 4.238 1.24-.93-.57 2.233a3.3 3.3 0 0 1-.67-1.303z"/><path id="_426240384" d="m.12 3.755.057-.202 1.27-.245-1.24.93a3.299 3.299 0 0 1-.086-.483z" style="fill:#b6c6e4"/><path id="_426240000" style="fill:#becce6" d="M2.79 4.642 1.447 3.308l.888-.257z"/><path id="_426239712" style="fill:#aabcdf" d="m2.335 3.05-.815-.942.568-.979z"/><path id="_426239832" class="fil14" d="m1.447 3.308.073-1.2.815.943z"/><path id="_426240288" d="m4.67 2.622-.661-1.187 1.14-.84c.048.03.095.06.141.092l-.62 1.935z" style="fill:#9eb3dc"/><path id="_426240240" class="fil16" d="m.848 1.35.014-.045a3.33 3.33 0 0 1 .565-.54l.66.364-1.239.22z"/><path id="_426239520" class="fil17" d="M1.52 2.108.848 1.35l1.24-.22z"/><path id="_426239424" class="fil7" d="M2.088 1.129 1.427.766c.2-.151.42-.28.653-.383l.008.746z"/><path id="_426239304" class="fil18" d="m1.964 5.72-.517-2.412L2.79 4.642z"/><path id="_426238968" class="fil19" d="m4.35 4.324-.868-.588L4.67 2.622z"/><path id="_426239688" class="fil20" d="m1.874 6.344.09-.625.602.895a3.29 3.29 0 0 1-.692-.27z"/><path id="_426239256" style="fill:#b1c1e2" d="m3.482 3.736.527-2.3.66 1.186z"/><path id="_426239160" class="fil7" d="M2.088 1.129 2.08.383c.115-.05.234-.095.356-.133l1.087.23-1.435.649z"/><path id="_426239328" class="fil5" d="m2.79 4.642-.455-1.591 1.147.685z"/><path id="_426239472" class="fil22" d="m3.626 6.662-1.662-.943.826-1.077z"/><path id="_426239616" class="fil23" d="m2.566 6.614-.602-.895 1.662.943-.117.06a3.37 3.37 0 0 1-.943-.108z"/><path id="_426238392" class="fil14" d="m3.482 3.736-1.147-.685L4.01 1.435z"/><path id="_426238632" class="fil3" d="M2.335 3.05 2.088 1.13l1.92.306z"/><path id="_426238584" style="fill:#96add8" d="M4.009 1.435 2.088 1.13 3.523.48z"/><path id="_426238296" class="fil25" d="m3.509 6.722.117-.06.026.053a3.343 3.343 0 0 1-.143.007z"/><path id="_426238272" style="fill:#ced8eb" d="m3.626 6.662-.836-2.02 1.467 1.652z"/><path id="_426238776" class="fil22" d="M4.257 6.294 2.79 4.642l1.56-.318z"/><path id="_426238680" d="m3.652 6.715-.026-.053.63-.368-.038.33a3.304 3.304 0 0 1-.566.09z" style="fill:#d5ddee"/><path id="_426238344" class="fil18" d="m2.79 4.642.692-.906.868.588z"/><path id="_426238464" class="fil16" d="M4.009 1.435 3.523.48 4.878.444c.093.046.184.097.272.151l-1.141.84z"/><path id="_426238512" class="fil23" d="m4.257 6.294.093-1.97.97.636z"/><path id="_426238728" class="fil1" d="M3.523.48 2.436.25a3.29 3.29 0 0 1 .132-.037l2.177.17c.045.02.09.04.133.061L3.523.48z"/><path id="_426238032" d="M5.775 5.732 5.32 4.96l.672-.734.096 1.137c-.095.13-.2.254-.313.37z" style="fill:#cad5eb"/><path id="_426237960" style="fill:#c4d1e8" d="m5.32 4.96-.97-.636 1.642-.098z"/><path id="_426237696" class="fil2" d="M5.992 4.226 4.67 2.622l1.412-1.166c.054.073.105.148.152.225l-.242 2.545z"/><path id="_426238056" class="fil17" d="M4.67 2.622 5.29.687c.305.21.573.47.792.769L4.67 2.622z"/><path id="_426237936" class="fil25" d="m4.962 6.34-.705-.046L5.32 4.96l.455.772a3.322 3.322 0 0 1-.813.607z"/><path id="_426237408" class="fil10" d="m4.35 4.324.32-1.702 1.322 1.604z"/><path id="_426238152" d="m4.218 6.625.039-.33.705.044c-.233.124-.482.22-.744.286z" style="fill:#dae2f0"/><path id="_426237744" d="m3.918.142-1.124.02a3.327 3.327 0 0 1 1.124-.02z" style="fill:#819dd0"/><path id="_426237864" class="fil1" d="M4.745.382 2.568.212c.074-.02.15-.036.226-.05l1.124-.02c.29.044.567.126.827.24z"/><path id="_426237816" d="m5.992 4.226.242-2.545c.303.493.481 1.071.489 1.69l-.731.855z" style="fill:#abbddf"/><path id="_426237312" d="m5.992 4.226.73-.854.001.041c0 .224-.022.443-.064.655l-.667.158z" style="fill:#afc1e1"/><path id="_426236976" class="fil20" d="m6.088 5.363-.096-1.137.488.435c-.102.25-.234.486-.392.702z"/><path id="_426237360" class="fil19" d="m6.48 4.66-.488-.434.667-.158a3.29 3.29 0 0 1-.179.593z"/><path id="_426236832" class="fil34" d="M3.413 0c.943 0 1.796.382 2.414 1 .618.617 1 1.47 1 2.413 0 .943-.382 1.796-1 2.414-.618.618-1.471 1-2.414 1a3.403 3.403 0 0 1-2.413-1 3.403 3.403 0 0 1-1-2.414C0 2.471.382 1.617 1 1c.617-.618 1.47-1 2.413-1zm2.268 1.146a3.196 3.196 0 0 0-2.268-.94c-.885 0-1.687.36-2.267.94-.58.58-.94 1.382-.94 2.267 0 .886.36 1.687.94 2.268.58.58 1.382.939 2.267.939.886 0 1.687-.36 2.268-.94.58-.58.939-1.381.939-2.267 0-.885-.36-1.687-.94-2.267z"/></g><g id="_426235488"><path id="_426237384" class="fil34" d="M3.467 1.804a.042.042 0 0 0-.083 0v.483a.042.042 0 0 0 .083 0v-.483z"/><path id="_426236784" class="fil35" d="m2.502 2.631.895-.37V2.26a.083.083 0 0 1 .07.003l.896.37a.083.083 0 0 1-.034.16H2.527a.083.083 0 0 1-.025-.162zm.927-.18a.094.094 0 1 1 0 .188.094.094 0 0 1 0-.188z"/><path id="_426236616" class="fil35" d="M4.18 3.163H5.414V4.41h-4V3.163h1.342v.167h-.074v.914h1.433V3.19h.067v-.027zm.318.33v.252H4.33v-.253h.167zm-2.003.335v.252H2.33v-.252h.166zm-.29 0v.252H2.04v-.252h.167zm-.289 0v.252h-.167v-.252h.167zm.58-.336v.253h-.167v-.253h.166zm-.29 0v.253h-.167v-.253h.167zm-.29 0v.253h-.167v-.253h.167zm3.161.336v.252h-.166v-.252h.166zm-.29 0v.252h-.166v-.252h.167zm-.29 0v.252h-.166v-.252h.167zm.58-.336v.253h-.166v-.253h.166zm-.29 0v.253h-.166v-.253h.167z"/><path id="_426236496" class="fil34" d="M2.79 2.75v1.564h-.167V2.749z"/><path id="_426236328" class="fil34" d="M4.235 2.75v1.564h-.167V2.749z"/><path id="_426236256" class="fil34" d="M2.64 4.401h1.546v.167H2.64z"/><path id="_426236304" class="fil34" d="M2.496 4.646H4.33v.17H2.496z"/><path id="_426235896" class="fil34" d="M2.331 4.894h2.165v.17H2.33z"/><path id="_426236160" class="fil34" d="M3.066 1.791h.36c.022 0 .041.02.041.042v.148a.042.042 0 0 1-.042.042H3.14a.042.042 0 0 1-.038-.024l.038-.018L3.1 2l-.07-.144a.042.042 0 0 1 .036-.063z"/><path id="_426236112" class="fil34" d="M3.872 2.711v1.627h-.125V2.71z"/><path id="_426236280" class="fil34" d="M3.491 2.711v1.627h-.125V2.71z"/><path id="_426236376" class="fil34" d="M3.11 2.711v1.627h-.124V2.71z"/></g></g></svg>