<svg xmlns="http://www.w3.org/2000/svg" viewBox="0 0 48 48"><defs><style>.cls-1{fill:#1e0f00;}</style></defs><title>Asset 81</title><g id="Layer_2" data-name="Layer 2"><g id="_1" data-name="1"><path class="cls-1" d="M40,21H38V12H10v9H8V11a1,1,0,0,1,1-1H39a1,1,0,0,1,1,1Z"/><rect class="cls-1" x="2" y="17" width="2" height="30"/><rect class="cls-1" x="44" y="17" width="2" height="30"/><path class="cls-1" d="M40,48H8a1,1,0,0,1-1-1V44a3,3,0,0,1,3-3H38a3,3,0,0,1,3,3v3A1,1,0,0,1,40,48ZM9,46H39V44a1,1,0,0,0-1-1H10a1,1,0,0,0-1,1Z"/><path class="cls-1" d="M43,12H5a1,1,0,0,1-.47-1.88l19-10a1,1,0,0,1,.94,0l19,10A1,1,0,0,1,43,12ZM9.05,10H39L24,2.13Z"/><path class="cls-1" d="M40,26H8a1,1,0,0,1-.45-1.89l16-8a1,1,0,0,1,.9,0l16,8A1,1,0,0,1,40,26ZM12.24,24H35.76L24,18.12Z"/><rect class="cls-1" y="46" width="48" height="2"/><rect class="cls-1" x="32" y="27" width="2" height="13"/><rect class="cls-1" x="38" y="27" width="2" height="13"/><rect class="cls-1" x="8" y="27" width="2" height="13"/><rect class="cls-1" x="26" y="27" width="2" height="13"/><rect class="cls-1" x="20" y="27" width="2" height="13"/><rect class="cls-1" x="14" y="27" width="2" height="13"/><rect class="cls-1" x="39" y="16" width="8" height="2"/><rect class="cls-1" x="1" y="16" width="8" height="2"/></g></g></svg>